<?xml version="1.0" encoding="UTF-8"?>
<svg id="Livello_1" data-name="Livello 1" xmlns="http://www.w3.org/2000/svg" xmlns:xlink="http://www.w3.org/1999/xlink" viewBox="0 0 924 768">
  <defs>
    <style>
      .cls-1 {
        fill: url(#Sfumatura_senza_nome_4-3);
      }

      .cls-2 {
        fill: url(#Sfumatura_senza_nome_4-2);
      }

      .cls-3 {
        fill: url(#Sfumatura_senza_nome_4);
      }

      .cls-4 {
        opacity: .1;
      }

      .cls-5 {
        fill: url(#Sfumatura_senza_nome_4-4);
      }
    </style>
    <linearGradient id="Sfumatura_senza_nome_4" data-name="Sfumatura senza nome 4" x1="-157.99" y1="809.72" x2="-157.99" y2="221.55" gradientTransform="translate(262.06 856.36) scale(1 -1)" gradientUnits="userSpaceOnUse">
      <stop offset="0" stop-color="#9073d3"/>
      <stop offset="1" stop-color="#31fff3"/>
    </linearGradient>
    <linearGradient id="Sfumatura_senza_nome_4-2" data-name="Sfumatura senza nome 4" x1="80" y1="105.77" x2="80" y2="694.91" xlink:href="#Sfumatura_senza_nome_4"/>
    <linearGradient id="Sfumatura_senza_nome_4-3" data-name="Sfumatura senza nome 4" x1="319.36" y1="839.44" x2="319.36" y2="250.3" xlink:href="#Sfumatura_senza_nome_4"/>
    <linearGradient id="Sfumatura_senza_nome_4-4" data-name="Sfumatura senza nome 4" x1="557.37" y1="110.72" x2="557.37" y2="699.87" xlink:href="#Sfumatura_senza_nome_4"/>
  </defs>
  <g class="cls-4">
    <path class="cls-3" d="m208.2,133.35v436.36c-.29,27.43-11.38,53.65-30.88,72.94-19.5,19.3-45.82,30.12-73.26,30.12s-53.76-10.82-73.26-30.12C11.3,623.36.21,597.14-.08,569.71V133.35c.02-27.62,11-54.1,30.54-73.61,19.54-19.52,46.03-30.48,73.65-30.46,17.27-.05,34.28,4.25,49.45,12.5.24.1.34.22.45.22.06.06.14.1.22.11,8.64,4.71,16.53,10.67,23.43,17.68,9.68,9.65,17.36,21.11,22.6,33.73,5.24,12.62,7.94,26.16,7.93,39.82Z"/>
    <path class="cls-2" d="m237.93,663.81V227.56c0-13.68,2.69-27.22,7.93-39.85,5.23-12.63,12.9-24.11,22.57-33.78,9.67-9.67,21.15-17.34,33.78-22.57,12.63-5.23,26.17-7.93,39.85-7.93s27.22,2.69,39.85,7.93c12.63,5.23,24.11,12.9,33.78,22.57,9.67,9.67,17.34,21.15,22.57,33.78,5.23,12.63,7.93,26.18,7.93,39.85v436.25c0,13.68-2.69,27.23-7.92,39.88-5.23,12.64-12.91,24.13-22.59,33.8s-21.16,17.35-33.8,22.59c-12.64,5.24-26.19,7.93-39.88,7.92-3.72,0-7.32-.22-10.81-.55h-.24c-25.55-2.78-49.17-14.89-66.34-34.01-17.17-19.12-26.67-43.93-26.69-69.63Z"/>
    <path class="cls-1" d="m685.55,103.6v436.36c0,27.62-10.97,54.1-30.5,73.63-19.53,19.53-46.02,30.5-73.64,30.5s-54.1-10.97-73.63-30.5c-19.53-19.53-30.5-46.02-30.5-73.63V103.6c0-13.68,2.7-27.22,7.93-39.86,5.24-12.63,12.91-24.11,22.59-33.78,9.68-9.67,21.16-17.33,33.8-22.55,12.64-5.22,26.19-7.91,39.86-7.89,4.3-.04,8.59.26,12.84.9h.23c22.9,2.77,44.21,13.17,60.49,29.51,9.68,9.67,17.36,21.15,22.6,33.79,5.24,12.64,7.93,26.19,7.92,39.87Z"/>
    <path class="cls-5" d="m715.29,658.86V222.6c0-13.68,2.7-27.22,7.93-39.85,5.23-12.63,12.9-24.11,22.57-33.78,9.67-9.67,21.15-17.34,33.78-22.57,12.63-5.23,26.18-7.93,39.85-7.93s27.22,2.69,39.85,7.93c12.63,5.23,24.11,12.9,33.78,22.57,9.67,9.67,17.34,21.15,22.57,33.78,5.23,12.63,7.93,26.17,7.93,39.85v436.26c0,13.68-2.69,27.23-7.93,39.87s-12.91,24.13-22.59,33.8c-9.68,9.68-21.16,17.35-33.8,22.59-12.64,5.24-26.19,7.93-39.87,7.93-13.78.06-27.43-2.71-40.1-8.12h-.11c-.06-.06-.14-.1-.22-.11-12.4-5.18-23.65-12.76-33.12-22.3-9.71-9.64-17.41-21.12-22.65-33.77-5.24-12.64-7.92-26.2-7.88-39.89Z"/>
  </g>
</svg>